<?xml version="1.0" encoding="UTF-8" standalone="yes"?>
<!DOCTYPE svg PUBLIC "-//W3C//DTD SVG 1.1//EN" "http://www.w3.org/Graphics/SVG/1.1/DTD/svg11.dtd">

<svg width="350" height="126" viewBox="0 0 350 126" xmlns="http://www.w3.org/2000/svg" xmlns:xlink="http://www.w3.org/1999/xlink" version="1.1" baseProfile="full">
    <defs>
        <linearGradient id="105553172768608140318832747584" x1="50.000000%" x2="50.000000%" y1="100.000000%" y2="0.000000%">
            <stop offset="0%" style="stop-color:#3a72f1;stop-opacity:1.000000"></stop>
            <stop offset="100%" style="stop-color:#ff007f;stop-opacity:1.000000"></stop>
        </linearGradient>
    </defs>
    <g transform="scale(1,-1) translate(0,-126)">
        <path d="M 1.000000 1.000000 L 351.000000 1.000000 L 351.000000 127.000000 L 1.000000 127.000000 Z" transform="scale(1.000000,1.000000) translate(-1.000000,-1.000000)" fill="#ffffff" opacity="0.000000"></path>
        <path d="M 24.670000 10.630000 Q 23.140000 6.580000 21.160000 4.600000 Q 17.560000 1.000000 11.080000 1.000000 L 6.490000 1.000000 L 6.490000 11.530000 L 9.190000 11.530000 Q 13.600000 11.530000 15.040000 15.760000 L 17.020000 21.520000 L 1.000000 65.080000 L 13.330000 65.080000 L 23.050000 36.100000 L 32.410000 65.080000 L 44.740000 65.080000 Z" transform="scale(1.000000,1.000000) translate(304.690000,43.643772)" fill="#000000" opacity="1.000000"></path>
        <path d="M 23.067600 1.262628 L 24.116700 1.434228 L 25.138300 1.648628 L 26.132500 1.906028 L 27.099300 2.206228 L 28.038700 2.549328 L 28.950700 2.935428 L 29.835200 3.364328 L 30.692300 3.836128 L 31.522000 4.350828 L 32.324300 4.908328 L 33.099100 5.508828 L 33.846500 6.152228 L 34.209900 6.489928 L 34.547700 6.830528 L 35.191100 7.530128 L 35.791500 8.254328 L 36.349100 9.003228 L 36.863800 9.776628 L 37.335600 10.574628 L 37.764500 11.397328 L 38.150500 12.244628 L 38.493700 13.116428 L 38.793900 14.012928 L 39.051200 14.934028 L 39.265700 15.879728 L 39.437200 16.850028 L 39.565900 17.845028 L 39.651700 18.864528 L 39.694600 19.908628 L 39.699900 20.439928 L 39.699900 65.529928 L 28.449900 65.529928 L 28.449900 61.119928 L 28.166300 61.424528 L 27.584800 62.004528 L 26.984400 62.545928 L 26.364900 63.048728 L 25.726500 63.512728 L 25.069100 63.938128 L 24.392700 64.324928 L 23.697300 64.672928 L 22.982900 64.982328 L 22.249500 65.253028 L 21.497200 65.485028 L 20.725900 65.678428 L 19.935500 65.833128 L 19.126200 65.949128 L 18.298000 66.026428 L 17.450700 66.065128 L 17.019900 66.069928 L 16.578500 66.065928 L 15.712900 66.033528 L 14.870600 65.968828 L 14.051400 65.871828 L 13.255500 65.742428 L 12.482800 65.580728 L 11.733200 65.386728 L 11.006900 65.160328 L 10.303800 64.901528 L 9.623900 64.610428 L 8.967100 64.287028 L 8.333600 63.931228 L 7.723300 63.543128 L 7.136200 63.122628 L 6.572300 62.669828 L 6.031600 62.184628 L 5.769900 61.929928 L 5.476500 61.623028 L 4.917500 60.956428 L 4.395800 60.219628 L 3.911300 59.412428 L 3.464100 58.534928 L 3.054200 57.587128 L 2.681600 56.568928 L 2.346200 55.480528 L 2.048000 54.321828 L 1.787200 53.092728 L 1.563600 51.793328 L 1.377300 50.423628 L 1.228200 48.983628 L 1.116400 47.473328 L 1.041900 45.892728 L 1.004600 44.241828 L 1.002800 43.923328 L 2.251900 43.678928 L 3.962800 43.151228 L 5.593700 42.444828 L 7.099900 41.583728 L 7.099900 43.679928 L 12.701800 43.679928 L 12.704500 44.098028 L 12.741100 45.442328 L 12.814200 46.691128 L 12.923900 47.844228 L 13.070100 48.901728 L 13.253000 49.863628 L 13.472300 50.729828 L 13.728300 51.500528 L 13.869900 51.849928 L 13.985300 52.076928 L 14.232800 52.509428 L 14.502800 52.913028 L 14.795300 53.287728 L 15.110300 53.633728 L 15.447800 53.950828 L 15.807800 54.239128 L 16.190300 54.498528 L 16.595300 54.729128 L 17.022800 54.930928 L 17.472800 55.103928 L 17.945300 55.248028 L 18.440300 55.363428 L 18.957800 55.449828 L 19.497800 55.507528 L 20.060300 55.536328 L 20.349900 55.539928 L 20.639600 55.536328 L 21.202100 55.507528 L 21.742100 55.449828 L 22.259600 55.363428 L 22.754600 55.248028 L 23.227100 55.103928 L 23.677100 54.930928 L 24.104600 54.729128 L 24.509600 54.498528 L 24.892100 54.239128 L 25.252100 53.950828 L 25.589600 53.633728 L 25.904600 53.287728 L 26.197100 52.913028 L 26.467100 52.509428 L 26.714600 52.076928 L 26.829900 51.849928 L 26.982500 51.500528 L 27.258200 50.729828 L 27.494400 49.863628 L 27.691300 48.901728 L 27.848800 47.844228 L 27.966900 46.691128 L 28.045700 45.442328 L 28.085000 44.098028 L 28.089900 43.389928 L 28.089900 20.619928 L 28.081500 20.108828 L 28.014000 19.124428 L 27.879000 18.190628 L 27.676500 17.307528 L 27.406500 16.475028 L 27.069000 15.693128 L 26.664000 14.961928 L 26.191500 14.281328 L 25.929900 13.959928 L 25.775700 13.771728 L 25.453000 13.413128 L 25.111200 13.078428 L 24.750500 12.767628 L 24.370900 12.480728 L 23.972200 12.217828 L 23.554500 11.978728 L 23.117900 11.763528 L 22.662300 11.572328 L 22.349900 11.462128 L 22.349900 1.176928 Z M 6.371000 24.703228 L 6.197800 25.549428 L 5.998700 26.279628 L 5.772200 26.912828 L 5.677000 27.130928 L 5.523800 27.420528 L 5.124200 28.017928 L 4.700900 28.482728 L 4.226600 28.862528 L 3.685300 29.170828 L 3.055200 29.413028 L 2.949400 29.437628 L 3.054200 29.152228 L 3.464100 28.208628 L 3.911300 27.336728 L 4.395800 26.536528 L 4.917500 25.808128 L 5.476500 25.151428 L 5.769900 24.849928 L 6.031500 24.595228 L 6.442000 24.226428 Z M 6.739900 11.746328 L 2.999800 7.960028 L 2.999800 6.366728 L 3.390000 6.026228 L 4.246400 5.356828 L 5.137200 4.735328 L 6.062500 4.161528 L 6.739900 3.790328 Z" transform="scale(1.000000,1.000000) translate(258.990000,55.388772)" fill="#000000" opacity="1.000000"></path>
        <path d="M 28.090000 20.620000 Q 28.090000 16.480000 25.930000 13.960000 Q 23.500000 10.900000 18.640000 10.900000 Q 13.150000 10.900000 9.460000 14.500000 L 2.170000 7.120000 Q 8.470000 1.000000 19.180000 1.000000 Q 28.450000 1.000000 34.210000 6.490000 Q 39.700000 11.890000 39.700000 20.440000 L 39.700000 65.530000 L 28.450000 65.530000 L 28.450000 61.120000 Q 23.950000 66.070000 17.020000 66.070000 Q 9.910000 66.070000 5.770000 61.930000 Q 1.000000 57.160000 1.000000 43.390000 Q 1.000000 29.530000 5.770000 24.850000 Q 9.910000 20.710000 16.930000 20.710000 Q 18.730000 20.710000 20.350000 20.980000 L 20.350000 31.150000 Q 15.670000 31.240000 13.870000 35.020000 Q 12.700000 37.630000 12.700000 43.390000 Q 12.700000 49.150000 13.870000 51.850000 Q 15.670000 55.540000 20.350000 55.540000 Q 25.030000 55.540000 26.830000 51.850000 Q 28.090000 49.150000 28.090000 43.390000 Z" transform="scale(1.000000,1.000000) translate(239.640000,31.538772)" fill="#000000" opacity="1.000000"></path>
        <path d="M 13.510000 53.920000 L 25.750000 53.920000 Q 29.620000 53.920000 31.870000 51.850000 Q 34.030000 49.870000 34.030000 46.540000 Q 34.030000 43.210000 31.870000 41.230000 Q 29.620000 39.160000 25.750000 39.160000 L 21.160000 39.160000 L 21.160000 27.910000 L 26.560000 27.910000 Q 30.610000 27.910000 32.860000 25.660000 Q 34.930000 23.500000 34.930000 20.080000 Q 34.930000 16.660000 32.860000 14.500000 Q 30.610000 12.160000 26.560000 12.160000 L 21.250000 12.160000 L 21.250000 1.000000 L 27.820000 1.000000 Q 36.640000 1.000000 41.950000 5.770000 Q 47.440000 10.720000 47.440000 19.450000 Q 47.440000 29.710000 38.620000 33.850000 Q 41.590000 35.290000 43.750000 38.350000 Q 46.540000 42.220000 46.540000 47.080000 Q 46.540000 55.360000 41.320000 60.220000 Q 36.010000 65.080000 26.740000 65.080000 L 1.000000 65.080000 L 1.000000 1.000000 L 13.510000 1.000000 Z M 72.550000 1.000000 Q 65.800000 1.000000 62.110000 5.230000 Q 58.870000 8.920000 58.870000 14.410000 L 58.870000 65.080000 L 70.570000 65.080000 L 70.570000 15.130000 Q 70.570000 10.900000 74.710000 10.900000 L 79.210000 10.900000 L 79.210000 1.000000 Z M 102.970000 11.980000 Q 101.890000 12.520000 101.080000 13.240000 Q 98.470000 15.940000 98.470000 24.670000 Q 98.470000 33.310000 101.080000 35.920000 Q 103.150000 37.990000 106.480000 37.990000 Q 109.900000 37.990000 111.970000 35.920000 Q 114.670000 33.310000 114.670000 24.670000 Q 114.670000 15.940000 111.970000 13.240000 Q 111.340000 12.700000 110.440000 12.160000 L 110.440000 1.090000 Q 116.920000 2.170000 121.060000 6.490000 Q 126.280000 11.980000 126.280000 24.670000 Q 126.280000 37.270000 121.060000 42.760000 Q 115.660000 48.520000 106.480000 48.520000 Q 97.480000 48.520000 92.080000 42.760000 Q 86.770000 37.270000 86.770000 24.670000 Q 86.770000 11.980000 92.080000 6.490000 Q 96.220000 1.990000 102.970000 1.000000 Z" transform="scale(1.000000,1.000000) translate(107.360000,60.833772)" fill="#000000" opacity="1.000000"></path>
        <path d="M 7.520000 12.040000 Q 8.100000 11.980000 8.630000 11.740000 Q 9.160000 11.500000 9.570000 11.080000 Q 9.980000 10.660000 10.220000 10.070000 Q 10.460000 9.480000 10.460000 8.740000 Q 10.460000 7.920000 10.180000 7.230000 Q 9.900000 6.540000 9.330000 6.050000 Q 8.760000 5.560000 7.890000 5.280000 Q 7.020000 5.000000 5.820000 5.000000 L 1.000000 5.000000 L 1.000000 18.480000 L 5.800000 18.480000 Q 7.680000 18.480000 8.770000 17.610000 Q 9.860000 16.740000 9.860000 15.140000 Q 9.860000 14.540000 9.670000 14.020000 Q 9.480000 13.500000 9.160000 13.100000 Q 8.840000 12.700000 8.410000 12.430000 Q 7.980000 12.160000 7.520000 12.040000 Z M 5.800000 5.820000 Q 7.740000 5.820000 8.630000 6.570000 Q 9.520000 7.320000 9.520000 8.740000 Q 9.520000 9.540000 9.260000 10.080000 Q 9.000000 10.620000 8.510000 10.950000 Q 8.020000 11.280000 7.330000 11.420000 Q 6.640000 11.560000 5.780000 11.560000 L 1.940000 11.560000 L 1.940000 5.820000 Z M 5.820000 12.380000 Q 7.160000 12.380000 8.040000 13.070000 Q 8.920000 13.760000 8.920000 15.140000 Q 8.920000 16.420000 8.100000 17.040000 Q 7.280000 17.660000 5.800000 17.660000 L 1.940000 17.660000 L 1.940000 12.380000 Z M 14.040000 5.000000 L 13.120000 5.000000 L 13.120000 18.480000 L 14.040000 18.480000 Z M 21.040000 14.820000 Q 22.140000 14.820000 22.950000 14.450000 Q 23.760000 14.080000 24.300000 13.410000 Q 24.840000 12.740000 25.110000 11.830000 Q 25.380000 10.920000 25.380000 9.840000 Q 25.380000 8.760000 25.110000 7.850000 Q 24.840000 6.940000 24.300000 6.270000 Q 23.760000 5.600000 22.950000 5.230000 Q 22.140000 4.860000 21.040000 4.860000 Q 19.940000 4.860000 19.130000 5.230000 Q 18.320000 5.600000 17.780000 6.270000 Q 17.240000 6.940000 16.970000 7.850000 Q 16.700000 8.760000 16.700000 9.840000 Q 16.700000 10.920000 16.970000 11.830000 Q 17.240000 12.740000 17.780000 13.410000 Q 18.320000 14.080000 19.130000 14.450000 Q 19.940000 14.820000 21.040000 14.820000 Z M 21.040000 5.620000 Q 21.940000 5.620000 22.590000 5.930000 Q 23.240000 6.240000 23.650000 6.800000 Q 24.060000 7.360000 24.260000 8.140000 Q 24.460000 8.920000 24.460000 9.840000 Q 24.460000 10.760000 24.260000 11.540000 Q 24.060000 12.320000 23.650000 12.880000 Q 23.240000 13.440000 22.590000 13.750000 Q 21.940000 14.060000 21.040000 14.060000 Q 20.140000 14.060000 19.490000 13.750000 Q 18.840000 13.440000 18.430000 12.880000 Q 18.020000 12.320000 17.820000 11.540000 Q 17.620000 10.760000 17.620000 9.840000 Q 17.620000 8.920000 17.820000 8.140000 Q 18.020000 7.360000 18.430000 6.800000 Q 18.840000 6.240000 19.490000 5.930000 Q 20.140000 5.620000 21.040000 5.620000 Z M 31.500000 5.660000 Q 32.300000 5.660000 32.910000 5.970000 Q 33.520000 6.280000 33.930000 6.790000 Q 34.340000 7.300000 34.550000 7.940000 Q 34.760000 8.580000 34.760000 9.240000 L 34.760000 11.760000 Q 34.160000 12.780000 33.320000 13.390000 Q 32.480000 14.000000 31.440000 14.000000 Q 30.800000 14.000000 30.230000 13.750000 Q 29.660000 13.500000 29.220000 12.990000 Q 28.780000 12.480000 28.520000 11.700000 Q 28.260000 10.920000 28.260000 9.860000 Q 28.260000 8.700000 28.530000 7.900000 Q 28.800000 7.100000 29.250000 6.600000 Q 29.700000 6.100000 30.290000 5.880000 Q 30.880000 5.660000 31.500000 5.660000 Z M 34.760000 6.900000 Q 34.240000 5.960000 33.410000 5.400000 Q 32.580000 4.840000 31.440000 4.840000 Q 30.560000 4.840000 29.810000 5.120000 Q 29.060000 5.400000 28.510000 6.010000 Q 27.960000 6.620000 27.650000 7.570000 Q 27.340000 8.520000 27.340000 9.860000 Q 27.340000 11.040000 27.660000 11.960000 Q 27.980000 12.880000 28.530000 13.520000 Q 29.080000 14.160000 29.800000 14.490000 Q 30.520000 14.820000 31.340000 14.820000 Q 32.000000 14.820000 32.540000 14.630000 Q 33.080000 14.440000 33.510000 14.140000 Q 33.940000 13.840000 34.250000 13.480000 Q 34.560000 13.120000 34.760000 12.760000 L 35.000000 14.660000 L 35.680000 14.660000 L 35.680000 5.440000 Q 35.680000 3.200000 34.590000 2.100000 Q 33.500000 1.000000 31.560000 1.000000 Q 30.540000 1.000000 29.690000 1.260000 Q 28.840000 1.520000 28.280000 1.820000 L 28.520000 2.560000 Q 29.080000 2.260000 29.870000 2.040000 Q 30.660000 1.820000 31.600000 1.820000 Q 32.320000 1.820000 32.900000 2.010000 Q 33.480000 2.200000 33.890000 2.630000 Q 34.300000 3.060000 34.530000 3.760000 Q 34.760000 4.460000 34.760000 5.460000 Z M 38.840000 5.660000 Q 38.840000 6.000000 39.050000 6.240000 Q 39.260000 6.480000 39.680000 6.480000 Q 40.100000 6.480000 40.310000 6.240000 Q 40.520000 6.000000 40.520000 5.660000 Q 40.520000 5.320000 40.310000 5.080000 Q 40.100000 4.840000 39.680000 4.840000 Q 39.260000 4.840000 39.050000 5.080000 Q 38.840000 5.320000 38.840000 5.660000 Z M 46.980000 4.840000 Q 45.560000 4.840000 44.690000 5.090000 Q 43.820000 5.340000 43.220000 5.680000 L 43.500000 6.460000 Q 44.180000 6.120000 45.000000 5.890000 Q 45.820000 5.660000 46.980000 5.660000 Q 47.720000 5.660000 48.360000 5.830000 Q 49.000000 6.000000 49.450000 6.350000 Q 49.900000 6.700000 50.160000 7.240000 Q 50.420000 7.780000 50.420000 8.540000 Q 50.420000 9.320000 50.140000 9.800000 Q 49.860000 10.280000 49.380000 10.590000 Q 48.900000 10.900000 48.280000 11.100000 Q 47.660000 11.300000 47.000000 11.520000 Q 46.320000 11.740000 45.640000 12.030000 Q 44.960000 12.320000 44.420000 12.750000 Q 43.880000 13.180000 43.540000 13.810000 Q 43.200000 14.440000 43.200000 15.320000 Q 43.200000 16.000000 43.420000 16.610000 Q 43.640000 17.220000 44.130000 17.670000 Q 44.620000 18.120000 45.390000 18.380000 Q 46.160000 18.640000 47.240000 18.640000 Q 48.280000 18.640000 49.130000 18.400000 Q 49.980000 18.160000 50.560000 17.860000 L 50.300000 17.160000 Q 49.680000 17.460000 48.860000 17.640000 Q 48.040000 17.820000 47.260000 17.820000 Q 45.580000 17.820000 44.840000 17.120000 Q 44.100000 16.420000 44.100000 15.260000 Q 44.100000 14.600000 44.330000 14.150000 Q 44.560000 13.700000 44.980000 13.370000 Q 45.400000 13.040000 45.980000 12.790000 Q 46.560000 12.540000 47.280000 12.300000 Q 48.060000 12.040000 48.790000 11.760000 Q 49.520000 11.480000 50.080000 11.070000 Q 50.640000 10.660000 50.980000 10.060000 Q 51.320000 9.460000 51.320000 8.540000 Q 51.320000 7.640000 51.010000 6.950000 Q 50.700000 6.260000 50.130000 5.790000 Q 49.560000 5.320000 48.760000 5.080000 Q 47.960000 4.840000 46.980000 4.840000 Z M 54.900000 5.000000 L 53.980000 5.000000 L 53.980000 14.660000 L 54.900000 14.660000 Z M 54.440000 18.640000 Q 54.820000 18.640000 55.030000 18.420000 Q 55.240000 18.200000 55.240000 17.880000 Q 55.240000 17.560000 55.030000 17.340000 Q 54.820000 17.120000 54.440000 17.120000 Q 54.060000 17.120000 53.850000 17.340000 Q 53.640000 17.560000 53.640000 17.880000 Q 53.640000 18.200000 53.850000 18.420000 Q 54.060000 18.640000 54.440000 18.640000 Z M 59.160000 5.000000 L 58.240000 5.000000 L 58.240000 14.660000 L 58.920000 14.660000 L 59.160000 12.760000 Q 59.380000 13.120000 59.720000 13.490000 Q 60.060000 13.860000 60.490000 14.160000 Q 60.920000 14.460000 61.420000 14.640000 Q 61.920000 14.820000 62.480000 14.820000 Q 63.560000 14.820000 64.130000 14.230000 Q 64.700000 13.640000 64.900000 12.620000 Q 65.420000 13.540000 66.330000 14.180000 Q 67.240000 14.820000 68.320000 14.820000 Q 69.660000 14.820000 70.250000 13.900000 Q 70.840000 12.980000 70.840000 11.440000 L 70.840000 5.000000 L 69.920000 5.000000 L 69.920000 11.440000 Q 69.920000 12.620000 69.580000 13.310000 Q 69.240000 14.000000 68.200000 14.000000 Q 67.280000 14.000000 66.420000 13.390000 Q 65.560000 12.780000 64.980000 11.780000 Q 64.980000 11.680000 64.990000 11.610000 Q 65.000000 11.540000 65.000000 11.440000 L 65.000000 5.000000 L 64.080000 5.000000 L 64.080000 11.440000 Q 64.080000 12.620000 63.740000 13.310000 Q 63.400000 14.000000 62.360000 14.000000 Q 61.860000 14.000000 61.400000 13.820000 Q 60.940000 13.640000 60.530000 13.330000 Q 60.120000 13.020000 59.770000 12.610000 Q 59.420000 12.200000 59.160000 11.760000 Z M 78.420000 4.840000 Q 77.220000 4.840000 76.370000 5.400000 Q 75.520000 5.960000 75.000000 6.900000 L 75.000000 1.180000 L 74.080000 1.180000 L 74.080000 14.660000 L 74.760000 14.660000 L 75.000000 12.760000 Q 75.240000 13.120000 75.590000 13.490000 Q 75.940000 13.860000 76.400000 14.150000 Q 76.860000 14.440000 77.420000 14.630000 Q 77.980000 14.820000 78.640000 14.820000 Q 79.440000 14.820000 80.130000 14.510000 Q 80.820000 14.200000 81.330000 13.580000 Q 81.840000 12.960000 82.130000 12.030000 Q 82.420000 11.100000 82.420000 9.860000 Q 82.420000 8.520000 82.110000 7.570000 Q 81.800000 6.620000 81.260000 6.010000 Q 80.720000 5.400000 79.990000 5.120000 Q 79.260000 4.840000 78.420000 4.840000 Z M 78.360000 5.660000 Q 78.940000 5.660000 79.510000 5.880000 Q 80.080000 6.100000 80.520000 6.600000 Q 80.960000 7.100000 81.230000 7.900000 Q 81.500000 8.700000 81.500000 9.860000 Q 81.500000 10.960000 81.270000 11.740000 Q 81.040000 12.520000 80.650000 13.020000 Q 80.260000 13.520000 79.720000 13.760000 Q 79.180000 14.000000 78.580000 14.000000 Q 77.500000 14.000000 76.590000 13.420000 Q 75.680000 12.840000 75.000000 11.760000 L 75.000000 9.240000 Q 75.000000 8.580000 75.210000 7.940000 Q 75.420000 7.300000 75.840000 6.790000 Q 76.260000 6.280000 76.890000 5.970000 Q 77.520000 5.660000 78.360000 5.660000 Z M 86.040000 5.000000 L 85.120000 5.000000 L 85.120000 18.480000 L 86.040000 18.480000 Z M 89.600000 9.400000 Q 89.680000 7.720000 90.580000 6.670000 Q 91.480000 5.620000 93.300000 5.620000 Q 94.060000 5.620000 94.710000 5.820000 Q 95.360000 6.020000 95.860000 6.300000 L 96.100000 5.600000 Q 95.600000 5.300000 94.870000 5.080000 Q 94.140000 4.860000 93.260000 4.860000 Q 92.120000 4.860000 91.260000 5.230000 Q 90.400000 5.600000 89.830000 6.270000 Q 89.260000 6.940000 88.980000 7.850000 Q 88.700000 8.760000 88.700000 9.840000 Q 88.700000 10.920000 88.970000 11.830000 Q 89.240000 12.740000 89.780000 13.410000 Q 90.320000 14.080000 91.130000 14.450000 Q 91.940000 14.820000 93.020000 14.820000 Q 94.780000 14.820000 95.700000 13.820000 Q 96.620000 12.820000 96.620000 11.000000 Q 96.620000 10.620000 96.550000 10.160000 Q 96.480000 9.700000 96.380000 9.400000 Z M 93.020000 14.080000 Q 92.120000 14.080000 91.480000 13.780000 Q 90.840000 13.480000 90.440000 12.960000 Q 90.040000 12.440000 89.840000 11.700000 Q 89.640000 10.960000 89.620000 10.100000 L 95.700000 10.100000 Q 95.740000 10.280000 95.760000 10.530000 Q 95.780000 10.780000 95.780000 11.000000 Q 95.780000 12.580000 95.110000 13.330000 Q 94.440000 14.080000 93.020000 14.080000 Z M 98.900000 5.660000 Q 98.900000 6.000000 99.110000 6.240000 Q 99.320000 6.480000 99.740000 6.480000 Q 100.160000 6.480000 100.370000 6.240000 Q 100.580000 6.000000 100.580000 5.660000 Q 100.580000 5.320000 100.370000 5.080000 Q 100.160000 4.840000 99.740000 4.840000 Q 99.320000 4.840000 99.110000 5.080000 Q 98.900000 5.320000 98.900000 5.660000 Z" transform="scale(1.000000,1.000000) translate(244.540000,-0.821228)" fill="#000000" opacity="1.000000"></path>
        <path d="M 4.924765 54.861180 C 2.757166 54.861180 1.000000 56.878949 1.000000 59.360658 C 1.000000 61.849731 2.757166 63.867500 4.924765 63.867500 L 75.884774 63.867500 C 78.052374 63.867500 79.809539 61.849731 79.809539 59.360658 C 79.809539 56.871585 78.052373 54.853816 75.884774 54.853816 L 4.924765 54.853816 L 4.924765 54.861180 Z M 4.924765 36.907453 C 2.757166 36.907453 1.000000 38.925223 1.000000 41.414296 C 1.000000 43.903369 2.757166 45.921137 4.924765 45.921137 L 50.059563 45.921137 C 52.227162 45.921137 53.984328 43.903368 53.984328 41.414296 C 53.984328 38.925223 52.227162 36.907454 50.059563 36.907454 L 4.924765 36.907454 L 4.924765 36.907453 Z M 4.924765 18.953725 C 2.757166 18.953725 1.000000 20.971496 1.000000 23.460569 C 1.000000 25.949642 2.757166 27.967411 4.924765 27.967411 L 75.884774 27.967411 C 78.052374 27.967411 79.809539 25.949642 79.809539 23.460569 C 79.809539 20.971496 78.052373 18.953728 75.884774 18.953728 L 4.924765 18.953728 L 4.924765 18.953725 Z M 4.924765 1.007364 C 2.757166 1.007364 1.000000 3.017771 1.000000 5.506842 C 1.000000 7.995915 2.757166 10.013684 4.924765 10.013684 L 50.059563 10.013684 C 52.227162 10.013684 53.984328 7.995915 53.984328 5.506842 C 53.984328 3.017769 52.227162 1.000000 50.059563 1.000000 L 4.924765 1.000000 L 4.924765 1.007364 Z" transform="scale(1.000000,1.000000) translate(-0.157862,62.046272)" fill="url(#105553172768608140318832747584)" opacity="1.000000"></path>
    </g>
</svg>