<?xml version="1.0" encoding="UTF-8"?>
<svg width="200px" height="55px" viewBox="0 0 200 55" version="1.1" xmlns="http://www.w3.org/2000/svg" xmlns:xlink="http://www.w3.org/1999/xlink">
    <title>logo</title>
    <defs>
        <linearGradient x1="50%" y1="100%" x2="50%" y2="0%" id="linearGradient-1">
            <stop stop-color="#3A72F1" offset="0%"></stop>
            <stop stop-color="#FF007F" offset="100%"></stop>
        </linearGradient>
    </defs>
    <g id="Page-1" stroke="none" stroke-width="1" fill="none" fill-rule="evenodd">
        <g id="logo-copy" fill-rule="nonzero">
            <g id="Group" transform="translate(100.000000, 27.500000) scale(-1, 1) rotate(-180.000000) translate(-100.000000, -27.500000) translate(0.000000, 0.000000)">
                <path d="M188.205714,13.0325262 C187.622857,11.4527389 186.954286,10.2766751 186.2,9.50433468 C184.828571,8.10007936 182.908571,7.3979517 180.44,7.3979517 L177.817143,7.3979517 L177.817143,13.5591219 L179.36,13.5591219 C181.04,13.5591219 182.154286,14.3841219 182.702857,16.0341219 L183.834286,19.4043347 L174.68,44.8915687 L181.725714,44.8915687 L187.28,27.9351857 L192.628571,44.8915687 L199.674286,44.8915687 L188.205714,13.0325262 Z" id="Path" fill="#000000"></path>
                <path d="M161.175771,14.4236915 L161.775257,14.5240957 L162.359029,14.6495426 L162.927143,14.8001489 L163.4796,14.9757979 L164.0164,15.1765479 L164.537543,15.4024574 L165.042971,15.6534096 L165.532743,15.9294628 L166.006857,16.230617 L166.465314,16.5568138 L166.908057,16.9081702 L167.335143,17.2846277 L167.5428,17.4822181 L167.735829,17.6815053 L168.103486,18.0908457 L168.446571,18.5145798 L168.7652,18.952766 L169.059314,19.4052872 L169.328914,19.8722021 L169.574,20.3535691 L169.794571,20.8493298 L169.990686,21.3594255 L170.162229,21.8839734 L170.309257,22.4229149 L170.431829,22.97625 L170.529829,23.5439787 L170.603371,24.1261596 L170.6524,24.7226755 L170.676914,25.3335851 L170.679943,25.6444521 L170.679943,52.0268989 L164.251371,52.0268989 L164.251371,49.4465798 L164.089314,49.6248032 L163.757029,49.9641649 L163.413943,50.2809415 L163.059943,50.575133 L162.695143,50.8466223 L162.319486,51.0955266 L161.932971,51.3218457 L161.5356,51.5254628 L161.127371,51.7064947 L160.708286,51.864883 L160.2784,52.0006277 L159.837657,52.1137872 L159.386,52.2043032 L158.923543,52.2721755 L158.450286,52.3174043 L157.966114,52.3400479 L157.719943,52.3428564 L157.467714,52.340516 L156.973086,52.3215585 L156.491771,52.2837021 L156.023657,52.2269468 L155.568857,52.151234 L155.127314,52.0566223 L154.698971,51.9431117 L154.283943,51.8106436 L153.882171,51.6592181 L153.493657,51.4888936 L153.118343,51.2996702 L152.756343,51.0914894 L152.4076,50.8644096 L152.072114,50.6183723 L151.749886,50.3534362 L151.440914,50.0695426 L151.291371,49.920516 L151.123714,49.7409468 L150.804286,49.3509149 L150.506171,48.9198085 L150.229314,48.4475106 L149.973771,47.9340798 L149.739543,47.379516 L149.526629,46.7837606 L149.334971,46.1469309 L149.164571,45.4689681 L149.015543,44.7498138 L148.887771,43.9895266 L148.781314,43.1881064 L148.696114,42.3455532 L148.632229,41.461867 L148.589657,40.5370479 L148.568343,39.5710957 L148.567314,39.3847394 L149.281086,39.2417394 L150.258743,38.9329787 L151.190686,38.5196596 L152.051371,38.0158245 L152.051371,39.2423245 L155.252457,39.2423245 L155.254,39.4869574 L155.274914,40.273516 L155.316686,41.0041968 L155.379371,41.678883 L155.462914,42.297633 L155.567429,42.8604468 L155.692743,43.367266 L155.839029,43.8182074 L155.919943,44.0226436 L155.985886,44.1554628 L156.127314,44.4085213 L156.2816,44.6446702 L156.448743,44.8639096 L156.628743,45.0663564 L156.8216,45.2518936 L157.027314,45.4205798 L157.245886,45.5723564 L157.477314,45.7072819 L157.7216,45.8253564 L157.978743,45.9265798 L158.248743,46.0108936 L158.5316,46.0784149 L158.827314,46.1289681 L159.135886,46.1627287 L159.457314,46.1795798 L159.6228,46.1816862 L159.788343,46.1795798 L160.109771,46.1627287 L160.418343,46.1289681 L160.714057,46.0784149 L160.996914,46.0108936 L161.266914,45.9265798 L161.524057,45.8253564 L161.768343,45.7072819 L161.999771,45.5723564 L162.218343,45.4205798 L162.424057,45.2518936 L162.616914,45.0663564 L162.796914,44.8639096 L162.964057,44.6446702 L163.118343,44.4085213 L163.259771,44.1554628 L163.325657,44.0226436 L163.412857,43.8182074 L163.5704,43.367266 L163.705371,42.8604468 L163.817886,42.297633 L163.907886,41.678883 L163.975371,41.0041968 L164.0204,40.273516 L164.042857,39.4869574 L164.045657,39.0726436 L164.045657,25.7497713 L164.040857,25.4507234 L164.002286,24.8747447 L163.925143,24.3283723 L163.809429,23.8116649 L163.655143,23.3245638 L163.462286,22.8670691 L163.230857,22.4392394 L162.960857,22.041016 L162.811371,21.8529628 L162.723257,21.7428457 L162.538857,21.5330266 L162.343543,21.3371915 L162.137429,21.1553404 L161.920514,20.9874734 L161.692686,20.8336489 L161.454,20.69375 L161.204514,20.5678351 L160.944171,20.4559628 L160.765657,20.391484 L160.765657,14.3735479 L161.175771,14.4236915 Z M151.634857,28.1389362 L151.535886,28.6340532 L151.422114,29.0612979 L151.292686,29.4317872 L151.238286,29.5593989 L151.150743,29.7288457 L150.9224,30.0783883 L150.680514,30.3503457 L150.409486,30.5725691 L150.100171,30.7529574 L149.740114,30.8946702 L149.679657,30.9090638 L149.739543,30.7420745 L149.973771,30.1899681 L150.229314,29.6798138 L150.506171,29.2116117 L150.804286,28.7854202 L151.123714,28.4011809 L151.291371,28.2247713 L151.440857,28.0757447 L151.675429,27.8599574 L151.634857,28.1389362 Z M151.845657,20.5577713 L149.708457,18.342383 L149.708457,17.410133 L149.931429,17.2109043 L150.4208,16.819234 L150.929829,16.4555904 L151.458571,16.1198564 L151.845657,15.9026649 L151.845657,20.5577713 Z" id="Shape" fill="#000000"></path>
                <path d="M152.988571,11.7950262 C152.988571,10.1801326 152.577143,8.88119638 151.754286,7.89821766 C150.828571,6.70460064 149.44,6.10779213 147.588571,6.10779213 C145.497143,6.10779213 143.748571,6.80991979 142.342857,8.21417511 L138.177143,3.89609 C140.577143,1.50885596 143.817143,0.315238936 147.897143,0.315238936 C151.428571,0.315238936 154.291429,1.38598362 156.485714,3.52747298 C158.577143,5.63385596 159.622857,8.35460064 159.622857,11.689707 L159.622857,38.0721538 L153.194286,38.0721538 L153.194286,35.4918347 C151.48,37.4226857 149.302857,38.3881113 146.662857,38.3881113 C143.954286,38.3881113 141.811429,37.5806645 140.234286,35.9657709 C138.417143,34.1051326 137.508571,30.4891751 137.508571,25.1178985 C137.508571,19.7115155 138.417143,16.0955581 140.234286,14.2700262 C141.811429,12.6551326 143.937143,11.8476857 146.611429,11.8476857 C147.297143,11.8476857 147.948571,11.9003453 148.565714,12.0056645 L148.565714,17.9561964 C146.782857,17.9913028 145.548571,18.74609 144.862857,20.2205581 C144.417143,21.2386432 144.194286,22.87109 144.194286,25.1178985 C144.194286,27.364707 144.417143,29.014707 144.862857,30.0678985 C145.548571,31.5072602 146.782857,32.2269411 148.565714,32.2269411 C150.348571,32.2269411 151.582857,31.5072602 152.268571,30.0678985 C152.748571,29.014707 152.988571,27.364707 152.988571,25.1178985 L152.988571,11.7950262 Z" id="Path" fill="#000000"></path>
                <path d="M69.0685714,48.4197602 L76.0628571,48.4197602 C77.5371429,48.4197602 78.7028571,48.0160368 79.56,47.20859 C80.3828571,46.4362496 80.7942857,45.4006113 80.7942857,44.1016751 C80.7942857,42.8027389 80.3828571,41.7671006 79.56,40.9947602 C78.7028571,40.1873134 77.5371429,39.78359 76.0628571,39.78359 L73.44,39.78359 L73.44,33.2011432 L76.5257143,33.2011432 C78.0685714,33.2011432 79.2685714,32.7623134 80.1257143,31.8846538 C80.9142857,31.0421006 81.3085714,29.9538028 81.3085714,28.6197602 C81.3085714,27.2857177 80.9142857,26.1974198 80.1257143,25.3548666 C79.2685714,24.4421006 78.0685714,23.9857177 76.5257143,23.9857177 L73.4914286,23.9857177 L73.4914286,17.4559304 L77.2457143,17.4559304 C80.6057143,17.4559304 83.2971429,18.3862496 85.32,20.2468879 C87.4114286,22.1777389 88.4571429,24.845824 88.4571429,28.2511432 C88.4571429,32.2532709 86.7771429,35.0617815 83.4171429,36.6766751 C84.5485714,37.2383772 85.5257143,38.1160368 86.3485714,39.3096538 C87.4114286,40.8192283 87.9428571,42.5218879 87.9428571,44.4176326 C87.9428571,47.6474198 86.9485714,50.2101857 84.96,52.1059304 C82.9371429,54.0016751 80.16,54.9495474 76.6285714,54.9495474 L61.92,54.9495474 L61.92,17.4559304 L69.0685714,17.4559304 L69.0685714,48.4197602 Z M102.805714,17.4559304 C100.234286,17.4559304 98.2457143,18.2809304 96.84,19.9309304 C95.6057143,21.3702921 94.9885714,23.1607177 94.9885714,25.302207 L94.9885714,54.9495474 L101.674286,54.9495474 L101.674286,25.7234836 C101.674286,24.0734836 102.462857,23.2484836 104.04,23.2484836 L106.611429,23.2484836 L106.611429,17.4559304 L102.805714,17.4559304 Z M120.188571,23.8803985 C119.777143,24.0910368 119.417143,24.3367815 119.108571,24.6176326 C118.114286,25.670824 117.617143,27.9000794 117.617143,31.3053985 C117.617143,34.6756113 118.114286,36.8697602 119.108571,37.8878453 C119.897143,38.6952921 120.925714,39.0990155 122.194286,39.0990155 C123.497143,39.0990155 124.542857,38.6952921 125.331429,37.8878453 C126.36,36.8697602 126.874286,34.6756113 126.874286,31.3053985 C126.874286,27.9000794 126.36,25.670824 125.331429,24.6176326 C125.091429,24.4069943 124.8,24.196356 124.457143,23.9857177 L124.457143,17.50859 C126.925714,17.9298666 128.948571,18.9830581 130.525714,20.6681645 C132.514286,22.8096538 133.508571,26.3553985 133.508571,31.3053985 C133.508571,36.2202921 132.514286,39.7484836 130.525714,41.889973 C128.468571,44.1367815 125.691429,45.2601857 122.194286,45.2601857 C118.765714,45.2601857 116.022857,44.1367815 113.965714,41.889973 C111.942857,39.7484836 110.931429,36.2202921 110.931429,31.3053985 C110.931429,26.3553985 111.942857,22.8096538 113.965714,20.6681645 C115.542857,18.9128453 117.617143,17.8421006 120.188571,17.4559304 L120.188571,23.8803985 Z" id="Shape" fill="#000000"></path>
                <path d="M2.72394457,49.6798921 C1.48531657,49.6798921 0.481221714,50.8605016 0.481221714,52.3125654 C0.481221714,53.7689379 1.48531657,54.9495474 2.72394457,54.9495474 L43.2725211,54.9495474 C44.5111497,54.9495474 45.515244,53.7689379 45.515244,52.3125654 C45.515244,50.8561929 44.5111491,49.6755834 43.2725211,49.6755834 L2.72394457,49.6755834 L2.72394457,49.6798921 Z M2.72394457,39.1750519 C1.48531657,39.1750519 0.481221714,40.355662 0.481221714,41.8120345 C0.481221714,43.268407 1.48531657,44.4490159 2.72394457,44.4490159 L28.5152577,44.4490159 C29.7538857,44.4490159 30.7579806,43.2684064 30.7579806,41.8120345 C30.7579806,40.355662 29.7538857,39.1750519 28.5152577,39.1750519 L2.72394457,39.1750519 L2.72394457,39.1750519 Z M2.72394457,28.670211 C1.48531657,28.670211 0.481221714,29.8508217 0.481221714,31.3071942 C0.481221714,32.7635667 1.48531657,33.9441762 2.72394457,33.9441762 L43.2725211,33.9441762 C44.5111497,33.9441762 45.515244,32.7635667 45.515244,31.3071942 C45.515244,29.8508217 44.5111491,28.670211 43.2725211,28.670211 L2.72394457,28.670211 L2.72394457,28.670211 Z M2.72394457,18.1696806 C1.48531657,18.1696806 0.481221714,19.3459826 0.481221714,20.8023539 C0.481221714,22.2587264 1.48531657,23.439336 2.72394457,23.439336 L28.5152577,23.439336 C29.7538857,23.439336 30.7579806,22.2587264 30.7579806,20.8023539 C30.7579806,19.3459814 29.7538857,18.1653719 28.5152577,18.1653719 L2.72394457,18.1653719 L2.72394457,18.1696806 Z" id="Shape" fill="url(#linearGradient-1)"></path>
            </g>
        </g>
    </g>
</svg>